<svg xmlns="http://www.w3.org/2000/svg" width="200" height="100" viewBox="0 0 200 100">
  <rect width="200" height="100" fill="white"/>
  <!-- D&G main letters -->
  <g transform="translate(20, 10)">
    <!-- D -->
    <path d="M0 0 L0 60 L25 60 C35 60 45 50 45 30 C45 10 35 0 25 0 Z M12 12 L25 12 C28 12 32 16 32 30 C32 44 28 48 25 48 L12 48 Z" fill="black"/>
    <!-- & symbol -->
    <g transform="translate(60, 10)">
      <path d="M15 20 C10 15 10 10 15 5 C20 0 25 5 25 10 C25 15 20 20 15 20 Z" fill="black"/>
      <path d="M5 35 C0 30 0 25 5 20 C15 20 20 25 15 35 C10 30 5 35 5 35 Z" fill="black"/>
      <path d="M20 25 L30 35 L25 40 L15 30" fill="black"/>
      <path d="M25 20 L35 30 L30 35 L20 25" fill="black"/>
    </g>
    <!-- G -->
    <g transform="translate(110, 0)">
      <path d="M25 0 C10 0 0 10 0 30 C0 50 10 60 25 60 C35 60 45 55 45 45 L45 35 L25 35 L25 45 L35 45 C35 48 30 48 25 48 C18 48 12 42 12 30 C12 18 18 12 25 12 C30 12 35 15 38 20 L45 15 C42 5 35 0 25 0 Z" fill="black"/>
    </g>
  </g>
  <!-- DOLCE & GABBANA text -->
  <text x="100" y="85" font-family="serif" font-size="10" font-weight="normal" text-anchor="middle" fill="black" letter-spacing="2px">DOLCE &amp; GABBANA</text>
</svg>