<svg xmlns="http://www.w3.org/2000/svg" version="1.1" width="225" height="225" viewBox="0 0 225 225"><g fill="black" stroke="none" fill-rule="evenodd"><path d="M 65,112 L 69,112 L 70,113 L 71,113 L 72,114 L 73,114 L 75,116 L 75,117 L 77,119 L 77,123 L 78,124 L 77,125 L 77,128 L 76,129 L 76,130 L 72,134 L 70,134 L 69,135 L 65,135 L 64,134 L 63,134 L 58,129 L 58,128 L 57,127 L 57,119 L 58,118 L 58,117 L 61,114 L 62,114 L 63,113 L 64,113 Z" /><path d="M 188,111 L 188,114 L 189,115 L 189,132 L 188,133 L 188,136 L 189,137 L 190,136 L 191,137 L 192,136 L 193,136 L 193,135 L 192,134 L 192,114 L 193,113 L 198,113 L 200,115 L 200,116 L 201,117 L 201,118 L 200,119 L 200,120 L 198,122 L 197,122 L 196,123 L 195,123 L 194,124 L 195,125 L 195,126 L 198,129 L 198,130 L 202,134 L 202,135 L 203,135 L 204,136 L 206,136 L 207,137 L 208,136 L 209,136 L 207,134 L 206,134 L 204,132 L 204,131 L 200,127 L 200,126 L 199,125 L 199,124 L 201,122 L 202,122 L 203,121 L 203,120 L 204,119 L 204,114 L 202,112 L 201,112 L 200,111 Z" /><path d="M 166,111 L 166,136 L 167,137 L 180,137 L 181,136 L 181,135 L 182,134 L 182,133 L 180,133 L 179,134 L 171,134 L 170,133 L 170,125 L 171,124 L 176,124 L 177,123 L 176,122 L 176,121 L 171,121 L 170,120 L 170,114 L 171,113 L 177,113 L 178,114 L 179,113 L 179,111 Z" /><path d="M 143,111 L 144,112 L 144,135 L 143,136 L 158,136 L 159,135 L 159,134 L 160,133 L 158,133 L 157,134 L 149,134 L 148,133 L 148,111 Z" /><path d="M 87,111 L 87,112 L 88,113 L 88,134 L 87,135 L 87,136 L 89,136 L 90,137 L 91,136 L 91,134 L 90,133 L 90,119 L 91,118 L 92,118 L 96,122 L 96,123 L 99,126 L 99,127 L 103,131 L 103,132 L 108,137 L 110,137 L 110,113 L 111,112 L 111,111 L 107,111 L 107,113 L 108,114 L 108,128 L 107,129 L 106,129 L 103,126 L 103,125 L 99,121 L 99,120 L 96,117 L 96,116 L 92,112 L 92,111 Z" /><path d="M 18,111 L 18,112 L 19,113 L 19,114 L 18,115 L 18,121 L 17,122 L 17,129 L 16,130 L 16,134 L 15,135 L 15,136 L 16,137 L 17,137 L 18,136 L 19,136 L 19,135 L 18,134 L 19,133 L 19,126 L 20,125 L 20,119 L 21,118 L 21,117 L 22,116 L 23,117 L 23,118 L 24,119 L 24,121 L 25,122 L 25,123 L 26,124 L 26,125 L 27,126 L 27,128 L 28,129 L 28,130 L 29,131 L 29,132 L 30,133 L 30,134 L 31,135 L 31,136 L 33,136 L 33,135 L 34,134 L 34,132 L 35,131 L 35,130 L 36,129 L 36,127 L 37,126 L 37,124 L 38,123 L 38,122 L 39,121 L 39,119 L 41,117 L 42,118 L 42,119 L 43,120 L 43,127 L 44,128 L 44,136 L 45,137 L 47,137 L 48,136 L 49,136 L 48,135 L 48,132 L 47,131 L 47,124 L 46,123 L 46,117 L 45,116 L 45,111 L 40,111 L 39,112 L 39,114 L 38,115 L 38,117 L 37,118 L 37,119 L 36,120 L 36,122 L 35,123 L 35,124 L 34,125 L 34,127 L 32,129 L 31,128 L 31,127 L 30,126 L 30,125 L 29,124 L 29,122 L 28,121 L 28,120 L 27,119 L 27,118 L 26,117 L 26,115 L 25,114 L 25,113 L 24,112 L 24,111 Z" /><path d="M 121,112 L 118,115 L 118,116 L 117,117 L 117,118 L 116,119 L 116,128 L 117,129 L 117,130 L 118,131 L 118,132 L 121,135 L 122,135 L 123,136 L 125,136 L 126,137 L 135,137 L 136,136 L 137,136 L 137,135 L 138,134 L 138,133 L 136,133 L 135,134 L 127,134 L 126,133 L 125,133 L 121,129 L 121,128 L 120,127 L 120,119 L 122,117 L 122,116 L 123,115 L 124,115 L 126,113 L 133,113 L 134,114 L 137,114 L 137,112 L 136,111 L 135,111 L 134,110 L 126,110 L 125,111 L 123,111 L 122,112 Z" /><path d="M 57,113 L 56,114 L 56,115 L 54,117 L 54,118 L 53,119 L 53,128 L 54,129 L 54,130 L 55,131 L 55,132 L 57,134 L 58,134 L 60,136 L 62,136 L 63,137 L 71,137 L 72,136 L 74,136 L 76,134 L 77,134 L 79,132 L 79,131 L 80,130 L 80,129 L 81,128 L 81,125 L 82,124 L 82,123 L 81,122 L 81,118 L 79,116 L 79,115 L 76,112 L 75,112 L 74,111 L 72,111 L 71,110 L 63,110 L 62,111 L 61,111 L 60,112 L 59,112 L 58,113 Z" /><path d="M 126,73 L 128,75 L 128,76 L 126,78 L 126,79 L 127,80 L 127,81 L 126,82 L 126,84 L 125,85 L 123,85 L 122,86 L 121,85 L 121,83 L 120,82 L 120,76 L 121,75 L 121,74 L 122,73 Z" /><path d="M 99,68 L 100,69 L 100,71 L 101,72 L 101,74 L 105,78 L 105,80 L 104,81 L 104,84 L 103,85 L 102,85 L 101,84 L 101,83 L 100,82 L 100,78 L 99,77 L 99,75 L 97,73 L 97,72 L 96,71 Z" /><path d="M 116,65 L 117,66 L 117,70 L 118,71 L 118,73 L 119,74 L 119,83 L 120,84 L 120,89 L 121,90 L 121,96 L 122,97 L 122,101 L 121,102 L 119,102 L 118,103 L 117,103 L 116,102 L 116,101 L 115,100 L 115,94 L 114,93 L 114,88 L 113,87 L 113,86 L 112,85 L 112,80 L 113,79 L 113,74 L 114,73 L 114,68 L 115,67 L 115,66 Z" /><path d="M 109,65 L 110,66 L 110,69 L 111,70 L 111,72 L 112,73 L 112,79 L 111,80 L 111,85 L 110,86 L 110,91 L 109,92 L 109,97 L 108,98 L 108,101 L 107,102 L 103,102 L 102,101 L 102,99 L 103,98 L 103,93 L 104,92 L 104,87 L 105,86 L 105,81 L 106,80 L 106,75 L 107,74 L 107,69 L 108,68 L 108,66 Z" /><path d="M 109,54 L 109,55 L 108,56 L 108,61 L 107,62 L 107,67 L 106,68 L 106,74 L 105,75 L 104,75 L 102,73 L 102,71 L 101,70 L 101,68 L 102,67 L 102,66 L 101,65 L 98,65 L 98,66 L 97,67 L 97,68 L 95,70 L 95,73 L 98,76 L 98,77 L 99,78 L 99,82 L 100,83 L 100,85 L 101,86 L 102,86 L 103,87 L 103,92 L 102,93 L 102,98 L 101,99 L 101,103 L 108,103 L 109,102 L 109,98 L 110,97 L 110,92 L 111,91 L 111,90 L 112,89 L 113,90 L 113,93 L 114,94 L 114,99 L 115,100 L 115,103 L 123,103 L 123,97 L 122,96 L 122,90 L 121,89 L 121,88 L 123,86 L 127,86 L 128,85 L 128,83 L 130,81 L 129,80 L 129,78 L 130,77 L 130,76 L 129,75 L 129,74 L 127,72 L 125,72 L 124,71 L 123,72 L 121,72 L 120,73 L 118,71 L 118,65 L 117,64 L 117,58 L 116,57 L 116,55 L 115,56 L 115,61 L 114,62 L 114,67 L 112,69 L 111,68 L 111,63 L 110,62 L 110,57 L 109,56 Z" /></g></svg>